<?xml version="1.0" encoding="UTF-8"?>
<!DOCTYPE svg PUBLIC "-//W3C//DTD SVG 1.1//EN" "http://www.w3.org/Graphics/SVG/1.1/DTD/svg11.dtd">
<svg xmlns="http://www.w3.org/2000/svg" version="1.1" width="1161px" height="260px" style="shape-rendering:geometricPrecision; text-rendering:geometricPrecision; image-rendering:optimizeQuality; fill-rule:evenodd; clip-rule:evenodd" xmlns:xlink="http://www.w3.org/1999/xlink">
<g><path style="opacity:0.998" fill="#010101" d="M 113.5,-0.5 C 424.5,-0.5 735.5,-0.5 1046.5,-0.5C 1110.61,11.9444 1148.61,50.2778 1160.5,114.5C 1160.5,124.5 1160.5,134.5 1160.5,144.5C 1153.25,190.834 1128.92,225 1087.5,247C 1073.63,253.212 1059.3,257.379 1044.5,259.5C 734.833,259.5 425.167,259.5 115.5,259.5C 59.0426,251.22 21.8759,219.887 4,165.5C 2.37825,158.724 0.878249,152.057 -0.5,145.5C -0.5,135.167 -0.5,124.833 -0.5,114.5C 8.09157,60.5223 38.0916,24.0223 89.5,5C 97.6165,3.08048 105.616,1.24714 113.5,-0.5 Z"/></g>
<g><path style="opacity:1" fill="#efefef" d="M 1131.5,61.5 C 1108.76,31.1201 1078.42,13.6201 1040.5,9C 732.167,8.33333 423.833,8.33333 115.5,9C 78.672,14.8966 49.3387,32.7299 27.5,62.5C 48.4802,30.3171 78.1468,11.1504 116.5,5C 425.167,4.33333 733.833,4.33333 1042.5,5C 1080.72,10.753 1110.38,29.5864 1131.5,61.5 Z"/></g>
<g><path style="opacity:1" fill="#fbfafb" d="M 145.5,54.5 C 145.831,75.3401 145.497,96.0067 144.5,116.5C 143.833,116.5 143.167,116.5 142.5,116.5C 138.714,115.107 135.048,113.441 131.5,111.5C 128.167,110.167 124.833,108.833 121.5,107.5C 117.334,104.916 113,102.583 108.5,100.5C 106.882,98.684 104.882,97.3507 102.5,96.5C 97.1898,92.8661 91.8564,89.1995 86.5,85.5C 82.1,76.365 76.9333,67.6983 71,59.5C 70.1041,56.975 70.6041,54.8083 72.5,53C 96.1667,52.3333 119.833,52.3333 143.5,53C 144.044,53.7172 144.711,54.2172 145.5,54.5 Z"/></g>
<g><path style="opacity:1" fill="#c0c0c0" d="M 289.5,56.5 C 265.474,56.2063 241.474,56.5396 217.5,57.5C 217.918,56.7784 218.584,56.2784 219.5,56C 243.004,55.1703 266.337,55.3369 289.5,56.5 Z"/></g>
<g><path style="opacity:1" fill="#8d8c8e" d="M 145.5,54.5 C 146.497,75.3267 146.831,96.3267 146.5,117.5C 145.508,117.672 144.842,117.338 144.5,116.5C 145.497,96.0067 145.831,75.3401 145.5,54.5 Z"/></g>
<g><path style="opacity:1" fill="#fcfdfd" d="M 289.5,56.5 C 290.458,56.9528 291.292,57.6195 292,58.5C 292.667,60.8333 292.667,63.1667 292,65.5C 279.712,74.6225 267.879,84.2892 256.5,94.5C 247.909,98.5785 239.242,102.245 230.5,105.5C 224.424,107.854 218.424,110.188 212.5,112.5C 207.499,113.834 202.499,115.167 197.5,116.5C 193.538,117.376 189.538,118.042 185.5,118.5C 186.419,109.981 188.085,101.648 190.5,93.5C 192.074,91.8984 192.741,89.8984 192.5,87.5C 196.556,73.79 204.89,63.79 217.5,57.5C 241.474,56.5396 265.474,56.2063 289.5,56.5 Z"/></g>
<g><path style="opacity:1" fill="#b0b0b0" d="M 1131.5,61.5 C 1133.25,62.6594 1134.25,64.326 1134.5,66.5C 1132.75,65.3406 1131.75,63.674 1131.5,61.5 Z"/></g>
<g><path style="opacity:1" fill="#b3b3b3" d="M 27.5,62.5 C 27.2503,64.674 26.2503,66.3406 24.5,67.5C 24.7497,65.326 25.7497,63.6594 27.5,62.5 Z"/></g>
<g><path style="opacity:1" fill="#aeaeae" d="M 1134.5,66.5 C 1136.08,67.0024 1136.58,68.0024 1136,69.5C 1134.96,68.7562 1134.46,67.7562 1134.5,66.5 Z"/></g>
<g><path style="opacity:1" fill="#a5a5a5" d="M 24.5,67.5 C 24.205,69.4233 23.3717,71.0899 22,72.5C 21.7506,70.332 22.5839,68.6653 24.5,67.5 Z"/></g>
<g><path style="opacity:1" fill="#777777" d="M 19.5,74.5 C 20.0967,74.7352 20.4301,75.2352 20.5,76C 19.47,78.5602 18.3034,81.0602 17,83.5C 17.2058,80.3939 18.0392,77.3939 19.5,74.5 Z"/></g>
<g><path style="opacity:1" fill="#aeaeae" d="M 561.5,77.5 C 582.66,76.5027 603.993,76.1694 625.5,76.5C 625.737,77.791 625.404,78.791 624.5,79.5C 603.86,77.5113 582.86,76.8447 561.5,77.5 Z"/></g>
<g><path style="opacity:1" fill="#aeaeae" d="M 965.5,77.5 C 986.67,76.1717 1008,76.1717 1029.5,77.5C 1029.38,78.1067 1029.04,78.44 1028.5,78.5C 1007.67,77.5027 986.673,77.1694 965.5,77.5 Z"/></g>
<g><path style="opacity:1" fill="#707070" d="M 362.5,78.5 C 352.773,77.8611 343.44,78.5278 334.5,80.5C 333.596,79.791 333.263,78.791 333.5,77.5C 343.348,77.1729 353.014,77.5062 362.5,78.5 Z"/></g>
<g><path style="opacity:1" fill="#6d6d6d" d="M 485.5,78.5 C 475.652,78.1729 465.986,78.5062 456.5,79.5C 455.957,79.44 455.624,79.1067 455.5,78.5C 465.659,77.1771 475.659,77.1771 485.5,78.5 Z"/></g>
<g><path style="opacity:1" fill="#fcfcfc" d="M 561.5,77.5 C 582.86,76.8447 603.86,77.5113 624.5,79.5C 621.399,84.6051 618.733,89.9384 616.5,95.5C 599.167,95.5 581.833,95.5 564.5,95.5C 564.5,102.833 564.5,110.167 564.5,117.5C 581.5,117.5 598.5,117.5 615.5,117.5C 615.5,138.167 615.5,158.833 615.5,179.5C 604.5,179.5 593.5,179.5 582.5,179.5C 581.341,173.381 579.675,167.381 577.5,161.5C 583.463,160.504 589.463,160.171 595.5,160.5C 596.492,152.684 596.826,144.684 596.5,136.5C 579.5,136.5 562.5,136.5 545.5,136.5C 544.339,123.006 544.173,109.34 545,95.5C 550.366,89.304 555.866,83.304 561.5,77.5 Z"/></g>
<g><path style="opacity:1" fill="#6f6f6f" d="M 667.5,78.5 C 657.773,77.8611 648.44,78.5278 639.5,80.5C 638.596,79.791 638.263,78.791 638.5,77.5C 648.348,77.1729 658.014,77.5062 667.5,78.5 Z"/></g>
<g><path style="opacity:1" fill="#6f6f6f" d="M 760.5,78.5 C 781.67,77.1717 803.004,77.1717 824.5,78.5C 824.376,79.1067 824.043,79.44 823.5,79.5C 802.673,78.5027 781.673,78.1694 760.5,78.5 Z"/></g>
<g><path style="opacity:1" fill="#6d6d6d" d="M 889.5,78.5 C 879.652,78.1729 869.986,78.5062 860.5,79.5C 859.957,79.44 859.624,79.1067 859.5,78.5C 869.659,77.1771 879.659,77.1771 889.5,78.5 Z"/></g>
<g><path style="opacity:1" fill="#fdfdfd" d="M 965.5,77.5 C 986.673,77.1694 1007.67,77.5027 1028.5,78.5C 1026.09,84.3182 1023.42,89.9849 1020.5,95.5C 1003.17,95.5 985.833,95.5 968.5,95.5C 968.5,102.833 968.5,110.167 968.5,117.5C 985.5,117.5 1002.5,117.5 1019.5,117.5C 1019.5,138.167 1019.5,158.833 1019.5,179.5C 1008.5,179.5 997.5,179.5 986.5,179.5C 985.03,174.626 983.697,169.626 982.5,164.5C 982.5,163.167 982.5,161.833 982.5,160.5C 988.5,160.5 994.5,160.5 1000.5,160.5C 1000.5,152.833 1000.5,145.167 1000.5,137.5C 983.675,136.503 966.675,136.17 949.5,136.5C 949.5,122.833 949.5,109.167 949.5,95.5C 954.462,89.2026 959.795,83.2026 965.5,77.5 Z"/></g>
<g><path style="opacity:1" fill="#fbfbfb" d="M 362.5,78.5 C 362.5,84.5 362.5,90.5 362.5,96.5C 355.8,96.83 349.134,96.4967 342.5,95.5C 340.059,90.2796 337.392,85.2796 334.5,80.5C 343.44,78.5278 352.773,77.8611 362.5,78.5 Z"/></g>
<g><path style="opacity:1" fill="#252525" d="M 394.5,78.5 C 394.5,91.8333 394.5,105.167 394.5,118.5C 386.833,118.5 379.167,118.5 371.5,118.5C 378.648,117.508 385.981,117.175 393.5,117.5C 393.171,104.323 393.505,91.3226 394.5,78.5 Z"/></g>
<g><path style="opacity:1" fill="#fbfbfb" d="M 394.5,78.5 C 400.833,78.5 407.167,78.5 413.5,78.5C 413.5,98.5 413.5,118.5 413.5,138.5C 397.833,138.5 382.167,138.5 366.5,138.5C 367.853,131.755 369.52,125.089 371.5,118.5C 379.167,118.5 386.833,118.5 394.5,118.5C 394.5,105.167 394.5,91.8333 394.5,78.5 Z"/></g>
<g><path style="opacity:1" fill="#7a7a7a" d="M 394.5,78.5 C 400.979,77.5093 407.646,77.176 414.5,77.5C 414.83,98.0069 414.497,118.34 413.5,138.5C 413.5,118.5 413.5,98.5 413.5,78.5C 407.167,78.5 400.833,78.5 394.5,78.5 Z"/></g>
<g><path style="opacity:1" fill="#f9f9f9" d="M 456.5,79.5 C 465.986,78.5062 475.652,78.1729 485.5,78.5C 500.918,112.495 515.585,146.828 529.5,181.5C 522.167,181.5 514.833,181.5 507.5,181.5C 496.492,152.975 484.492,124.809 471.5,97C 469.236,96.7638 467.069,96.2638 465,95.5C 462.392,89.9466 459.559,84.6132 456.5,79.5 Z"/></g>
<g><path style="opacity:1" fill="#fcfcfc" d="M 667.5,78.5 C 667.5,84.5 667.5,90.5 667.5,96.5C 660.745,96.7934 654.078,96.4601 647.5,95.5C 644.763,90.4584 642.096,85.4584 639.5,80.5C 648.44,78.5278 657.773,77.8611 667.5,78.5 Z"/></g>
<g><path style="opacity:1" fill="#232323" d="M 699.5,78.5 C 699.5,91.8333 699.5,105.167 699.5,118.5C 692.167,118.5 684.833,118.5 677.5,118.5C 684.313,117.509 691.313,117.175 698.5,117.5C 698.171,104.323 698.505,91.3226 699.5,78.5 Z"/></g>
<g><path style="opacity:1" fill="#fafafa" d="M 699.5,78.5 C 705.833,78.5 712.167,78.5 718.5,78.5C 718.5,98.5 718.5,118.5 718.5,138.5C 702.833,138.5 687.167,138.5 671.5,138.5C 672.588,131.465 674.588,124.799 677.5,118.5C 684.833,118.5 692.167,118.5 699.5,118.5C 699.5,105.167 699.5,91.8333 699.5,78.5 Z"/></g>
<g><path style="opacity:1" fill="#8d8d8d" d="M 699.5,78.5 C 705.979,77.5093 712.646,77.176 719.5,77.5C 719.83,98.0069 719.497,118.34 718.5,138.5C 718.5,118.5 718.5,98.5 718.5,78.5C 712.167,78.5 705.833,78.5 699.5,78.5 Z"/></g>
<g><path style="opacity:1" fill="#f9f9f9" d="M 760.5,78.5 C 781.673,78.1694 802.673,78.5027 823.5,79.5C 820.799,85.2319 817.799,90.8986 814.5,96.5C 797.513,97.4995 780.513,97.8328 763.5,97.5C 763.5,118.833 763.5,140.167 763.5,161.5C 767.226,161.177 770.893,161.511 774.5,162.5C 776.905,168.051 778.905,173.717 780.5,179.5C 768.678,180.495 756.678,180.828 744.5,180.5C 744.5,152.5 744.5,124.5 744.5,96.5C 749.491,90.177 754.824,84.177 760.5,78.5 Z"/></g>
<g><path style="opacity:1" fill="#f8f8f8" d="M 860.5,79.5 C 869.986,78.5062 879.652,78.1729 889.5,78.5C 904.948,112.513 919.614,146.846 933.5,181.5C 926.492,181.666 919.492,181.5 912.5,181C 900.533,153.219 888.367,125.385 876,97.5C 873.853,96.8875 871.686,96.2208 869.5,95.5C 865.952,90.396 862.952,85.0626 860.5,79.5 Z"/></g>
<g><path style="opacity:1" fill="#fdfdfd" d="M 1120.5,95.5 C 1097.67,96.4975 1074.67,96.8308 1051.5,96.5C 1048.63,90.5838 1045.63,84.7504 1042.5,79C 1063.83,78.3333 1085.17,78.3333 1106.5,79C 1111.38,84.3726 1116.04,89.8726 1120.5,95.5 Z"/></g>
<g><path style="opacity:1" fill="#616161" d="M 1142.5,81.5 C 1144.43,83.7942 1145.26,86.4609 1145,89.5C 1143.66,86.978 1142.83,84.3113 1142.5,81.5 Z"/></g>
<g><path style="opacity:1" fill="#9d9d9d" d="M 192.5,87.5 C 192.741,89.8984 192.074,91.8984 190.5,93.5C 190.259,91.1016 190.926,89.1016 192.5,87.5 Z"/></g>
<g><path style="opacity:1" fill="#934cbd" d="M 86.5,85.5 C 91.8564,89.1995 97.1898,92.8661 102.5,96.5C 101.509,102.979 101.176,109.646 101.5,116.5C 96.9497,106.016 91.9497,95.6827 86.5,85.5 Z"/></g>
<g><path style="opacity:1" fill="#404040" d="M 647.5,95.5 C 654.078,96.4601 660.745,96.7934 667.5,96.5C 664.351,97.1651 661.018,97.4984 657.5,97.5C 653.761,97.4864 650.428,96.8197 647.5,95.5 Z"/></g>
<g><path style="opacity:1" fill="#929292" d="M 1120.5,95.5 C 1121.29,95.7828 1121.96,96.2828 1122.5,97C 1098.66,97.8298 1075,97.6631 1051.5,96.5C 1074.67,96.8308 1097.67,96.4975 1120.5,95.5 Z"/></g>
<g><path style="opacity:1" fill="#dadada" d="M 744.5,96.5 C 744.5,124.5 744.5,152.5 744.5,180.5C 756.678,180.828 768.678,180.495 780.5,179.5C 781.043,179.56 781.376,179.893 781.5,180.5C 768.851,181.499 756.184,181.832 743.5,181.5C 743.169,152.995 743.502,124.662 744.5,96.5 Z"/></g>
<g><path style="opacity:1" fill="#984ccd" d="M 102.5,96.5 C 104.882,97.3507 106.882,98.684 108.5,100.5C 108.169,127.005 108.502,153.339 109.5,179.5C 107.664,181.588 105.331,182.921 102.5,183.5C 101.509,176.687 101.175,169.687 101.5,162.5C 102.975,157.6 103.975,152.6 104.5,147.5C 105.165,144.518 105.498,141.352 105.5,138C 105.692,133.228 105.025,128.728 103.5,124.5C 102.833,121.833 102.167,119.167 101.5,116.5C 101.176,109.646 101.509,102.979 102.5,96.5 Z"/></g>
<g><path style="opacity:1" fill="#f8f8f8" d="M 469.5,142.5 C 468.957,142.56 468.624,142.893 468.5,143.5C 474.128,144.495 479.794,144.829 485.5,144.5C 488.537,149.918 491.203,155.584 493.5,161.5C 482.37,163.159 471.037,164.159 459.5,164.5C 457.181,169.775 454.847,175.108 452.5,180.5C 445.167,181.833 437.833,181.833 430.5,180.5C 442.075,153.02 453.909,125.686 466,98.5C 469.713,105.631 473.047,112.964 476,120.5C 476.667,122.5 476.667,124.5 476,126.5C 472.96,131.565 470.794,136.899 469.5,142.5 Z"/></g>
<g><path style="opacity:1" fill="#f8f8f8" d="M 873.5,141.5 C 872.596,142.209 872.263,143.209 872.5,144.5C 878.5,144.5 884.5,144.5 890.5,144.5C 893.029,150.086 895.362,155.753 897.5,161.5C 886.37,163.159 875.037,164.159 863.5,164.5C 861.468,169.96 859.134,175.293 856.5,180.5C 849.167,181.833 841.833,181.833 834.5,180.5C 845.778,153.276 857.611,126.276 870,99.5C 871.385,100.551 872.385,101.884 873,103.5C 875.884,110.149 878.384,116.982 880.5,124C 878.066,129.804 875.733,135.637 873.5,141.5 Z"/></g>
<g><path style="opacity:1" fill="#3187fa" d="M 256.5,94.5 C 250.092,101.567 244.092,108.901 238.5,116.5C 237.57,112.6 237.237,108.6 237.5,104.5C 235.194,104.993 232.861,105.326 230.5,105.5C 239.242,102.245 247.909,98.5785 256.5,94.5 Z"/></g>
<g><path style="opacity:1" fill="#f7f7f7" d="M 342.5,101.5 C 349.167,101.5 355.833,101.5 362.5,101.5C 362.5,128.167 362.5,154.833 362.5,181.5C 355.833,181.5 349.167,181.5 342.5,181.5C 342.5,154.833 342.5,128.167 342.5,101.5 Z"/></g>
<g><path style="opacity:1" fill="#f8f8f8" d="M 647.5,101.5 C 654.167,101.5 660.833,101.5 667.5,101.5C 667.5,128.167 667.5,154.833 667.5,181.5C 660.833,181.5 654.167,181.5 647.5,181.5C 647.5,154.833 647.5,128.167 647.5,101.5 Z"/></g>
<g><path style="opacity:1" fill="#fefefe" d="M 1071.5,161.5 C 1088.33,162.497 1105.33,162.83 1122.5,162.5C 1122.5,168.5 1122.5,174.5 1122.5,180.5C 1120.9,180.232 1119.57,180.566 1118.5,181.5C 1096.5,181.5 1074.5,181.5 1052.5,181.5C 1052.5,154.833 1052.5,128.167 1052.5,101.5C 1058.83,101.5 1065.17,101.5 1071.5,101.5C 1071.5,121.5 1071.5,141.5 1071.5,161.5 Z"/></g>
<g><path style="opacity:1" fill="#9d4ede" d="M 108.5,100.5 C 113,102.583 117.334,104.916 121.5,107.5C 120.168,118.146 119.501,129.146 119.5,140.5C 119.501,151.854 120.168,162.854 121.5,173.5C 117.539,175.481 113.539,177.481 109.5,179.5C 108.502,153.339 108.169,127.005 108.5,100.5 Z"/></g>
<g><path style="opacity:1" fill="#9f53f0" d="M 121.5,107.5 C 124.833,108.833 128.167,110.167 131.5,111.5C 131.355,130.685 131.355,150.018 131.5,169.5C 128.167,170.833 124.833,172.167 121.5,173.5C 120.168,162.854 119.501,151.854 119.5,140.5C 119.501,129.146 120.168,118.146 121.5,107.5 Z"/></g>
<g><path style="opacity:1" fill="#1b79fc" d="M 238.5,116.5 C 235.755,121.66 233.255,126.994 231,132.5C 229.752,140.796 230.752,148.796 234,156.5C 237.113,161.729 239.947,167.062 242.5,172.5C 241.733,173.172 241.066,174.005 240.5,175C 240.67,176.57 241.003,178.403 241.5,180.5C 240.5,180.5 239.5,180.5 238.5,180.5C 230.059,177.572 221.726,174.239 213.5,170.5C 212.513,151.243 212.18,131.909 212.5,112.5C 218.424,110.188 224.424,107.854 230.5,105.5C 232.861,105.326 235.194,104.993 237.5,104.5C 237.237,108.6 237.57,112.6 238.5,116.5 Z"/></g>
<g><path style="opacity:1" fill="#407dfc" d="M 212.5,112.5 C 212.18,131.909 212.513,151.243 213.5,170.5C 206.167,167.84 198.834,165.507 191.5,163.5C 191.5,148.5 191.5,133.5 191.5,118.5C 193.786,118.405 195.786,117.738 197.5,116.5C 202.499,115.167 207.499,113.834 212.5,112.5 Z"/></g>
<g><path style="opacity:1" fill="#985ff3" d="M 131.5,111.5 C 135.048,113.441 138.714,115.107 142.5,116.5C 142.818,132.911 142.484,149.244 141.5,165.5C 137.951,166.274 134.618,167.607 131.5,169.5C 131.355,150.018 131.355,130.685 131.5,111.5 Z"/></g>
<g><path style="opacity:1" fill="#4d4d4d" d="M 616.5,95.5 C 599.675,96.4966 582.675,96.8299 565.5,96.5C 565.5,103.167 565.5,109.833 565.5,116.5C 582.675,116.17 599.675,116.503 616.5,117.5C 616.167,117.5 615.833,117.5 615.5,117.5C 598.5,117.5 581.5,117.5 564.5,117.5C 564.5,110.167 564.5,102.833 564.5,95.5C 581.833,95.5 599.167,95.5 616.5,95.5 Z"/></g>
<g><path style="opacity:1" fill="#4f4f4f" d="M 1020.5,95.5 C 1003.67,96.4966 986.675,96.8299 969.5,96.5C 969.5,103.167 969.5,109.833 969.5,116.5C 986.675,116.17 1003.67,116.503 1020.5,117.5C 1020.17,117.5 1019.83,117.5 1019.5,117.5C 1002.5,117.5 985.5,117.5 968.5,117.5C 968.5,110.167 968.5,102.833 968.5,95.5C 985.833,95.5 1003.17,95.5 1020.5,95.5 Z"/></g>
<g><path style="opacity:1" fill="#8f8f8f" d="M 615.5,117.5 C 615.833,117.5 616.167,117.5 616.5,117.5C 616.5,138.5 616.5,159.5 616.5,180.5C 604.988,180.828 593.654,180.495 582.5,179.5C 593.5,179.5 604.5,179.5 615.5,179.5C 615.5,158.833 615.5,138.167 615.5,117.5 Z"/></g>
<g><path style="opacity:1" fill="#909090" d="M 1019.5,117.5 C 1019.83,117.5 1020.17,117.5 1020.5,117.5C 1020.5,138.5 1020.5,159.5 1020.5,180.5C 1008.99,180.828 997.654,180.495 986.5,179.5C 997.5,179.5 1008.5,179.5 1019.5,179.5C 1019.5,158.833 1019.5,138.167 1019.5,117.5 Z"/></g>
<g><path style="opacity:1" fill="#8f6bf3" d="M 142.5,116.5 C 143.167,116.5 143.833,116.5 144.5,116.5C 144.842,117.338 145.508,117.672 146.5,117.5C 148.698,117.875 150.698,118.542 152.5,119.5C 153.091,120.151 153.757,120.818 154.5,121.5C 154.787,135.108 154.454,148.775 153.5,162.5C 150.933,162.721 148.599,163.388 146.5,164.5C 144.784,164.629 143.117,164.962 141.5,165.5C 142.484,149.244 142.818,132.911 142.5,116.5 Z"/></g>
<g><path style="opacity:1" fill="#f0f0f0" d="M 1075.5,119.5 C 1084.5,119.5 1093.5,119.5 1102.5,119.5C 1102.5,126.167 1102.5,132.833 1102.5,139.5C 1093.83,139.666 1085.16,139.5 1076.5,139C 1075.52,132.59 1075.19,126.09 1075.5,119.5 Z"/></g>
<g><path style="opacity:1" fill="#8876f6" d="M 152.5,119.5 C 155.455,120.159 158.455,120.492 161.5,120.5C 162.209,121.404 163.209,121.737 164.5,121.5C 164.717,134.316 164.717,146.983 164.5,159.5C 163.209,159.263 162.209,159.596 161.5,160.5C 158.779,160.963 156.112,161.629 153.5,162.5C 154.454,148.775 154.787,135.108 154.5,121.5C 153.757,120.818 153.091,120.151 152.5,119.5 Z"/></g>
<g><path style="opacity:1" fill="#6b81f8" d="M 197.5,116.5 C 195.786,117.738 193.786,118.405 191.5,118.5C 191.5,133.5 191.5,148.5 191.5,163.5C 189.833,163.5 188.167,163.5 186.5,163.5C 181.796,162.209 177.129,161.209 172.5,160.5C 173.583,160.461 174.583,160.127 175.5,159.5C 176.499,146.851 176.832,134.184 176.5,121.5C 172.5,121.5 168.5,121.5 164.5,121.5C 163.209,121.737 162.209,121.404 161.5,120.5C 169.743,120.935 177.743,120.269 185.5,118.5C 189.538,118.042 193.538,117.376 197.5,116.5 Z"/></g>
<g><path style="opacity:1" fill="#8081f8" d="M 164.5,121.5 C 168.5,121.5 172.5,121.5 176.5,121.5C 176.832,134.184 176.499,146.851 175.5,159.5C 174.583,160.127 173.583,160.461 172.5,160.5C 168.833,160.5 165.167,160.5 161.5,160.5C 162.209,159.596 163.209,159.263 164.5,159.5C 164.717,146.983 164.717,134.316 164.5,121.5 Z"/></g>
<g><path style="opacity:1" fill="#301840" d="M 103.5,124.5 C 105.025,128.728 105.692,133.228 105.5,138C 105.498,141.352 105.165,144.518 104.5,147.5C 104.477,139.817 104.143,132.15 103.5,124.5 Z"/></g>
<g><path style="opacity:1" fill="#9b9b9b" d="M 949.5,95.5 C 949.5,109.167 949.5,122.833 949.5,136.5C 966.675,136.17 983.675,136.503 1000.5,137.5C 1000.17,137.5 999.833,137.5 999.5,137.5C 982.5,137.5 965.5,137.5 948.5,137.5C 948.171,123.323 948.504,109.323 949.5,95.5 Z"/></g>
<g><path style="opacity:1" fill="#767676" d="M 545.5,136.5 C 562.5,136.5 579.5,136.5 596.5,136.5C 596.826,144.684 596.492,152.684 595.5,160.5C 595.5,152.833 595.5,145.167 595.5,137.5C 578.658,137.83 561.992,137.497 545.5,136.5 Z"/></g>
<g><path style="opacity:1" fill="#a8a8a8" d="M 469.5,142.5 C 474.833,143.167 480.167,143.833 485.5,144.5C 479.794,144.829 474.128,144.495 468.5,143.5C 468.624,142.893 468.957,142.56 469.5,142.5 Z"/></g>
<g><path style="opacity:1" fill="#a3a3a3" d="M 873.5,141.5 C 878.927,143.146 884.594,144.146 890.5,144.5C 884.5,144.5 878.5,144.5 872.5,144.5C 872.263,143.209 872.596,142.209 873.5,141.5 Z"/></g>
<g><path style="opacity:1" fill="#fcfcfc" d="M 394.5,144.5 C 400.833,144.5 407.167,144.5 413.5,144.5C 413.5,156.833 413.5,169.167 413.5,181.5C 407.167,181.5 400.833,181.5 394.5,181.5C 394.5,169.167 394.5,156.833 394.5,144.5 Z"/></g>
<g><path style="opacity:1" fill="#fefefe" d="M 700.5,144.5 C 706.5,144.5 712.5,144.5 718.5,144.5C 718.5,156.5 718.5,168.5 718.5,180.5C 712.5,180.5 706.5,180.5 700.5,180.5C 700.5,168.5 700.5,156.5 700.5,144.5 Z"/></g>
<g><path style="opacity:1" fill="#878787" d="M 394.5,144.5 C 400.979,143.509 407.646,143.176 414.5,143.5C 414.829,156.344 414.495,169.011 413.5,181.5C 413.5,169.167 413.5,156.833 413.5,144.5C 407.167,144.5 400.833,144.5 394.5,144.5 Z"/></g>
<g><path style="opacity:1" fill="#cdcdcd" d="M 699.5,144.5 C 699.833,144.5 700.167,144.5 700.5,144.5C 700.5,156.5 700.5,168.5 700.5,180.5C 706.5,180.5 712.5,180.5 718.5,180.5C 718.5,180.833 718.5,181.167 718.5,181.5C 712.167,181.5 705.833,181.5 699.5,181.5C 699.5,169.167 699.5,156.833 699.5,144.5 Z"/></g>
<g><path style="opacity:1" fill="#999999" d="M 699.5,144.5 C 705.979,143.509 712.646,143.176 719.5,143.5C 719.829,156.344 719.495,169.011 718.5,181.5C 718.5,181.167 718.5,180.833 718.5,180.5C 718.5,168.5 718.5,156.5 718.5,144.5C 712.5,144.5 706.5,144.5 700.5,144.5C 700.167,144.5 699.833,144.5 699.5,144.5 Z"/></g>
<g><path style="opacity:1" fill="#303030" d="M 999.5,137.5 C 999.833,137.5 1000.17,137.5 1000.5,137.5C 1000.5,145.167 1000.5,152.833 1000.5,160.5C 994.5,160.5 988.5,160.5 982.5,160.5C 982.5,161.833 982.5,163.167 982.5,164.5C 981.549,163.081 981.216,161.415 981.5,159.5C 987.5,159.5 993.5,159.5 999.5,159.5C 999.5,152.167 999.5,144.833 999.5,137.5 Z"/></g>
<g><path style="opacity:1" fill="#fcfcfc" d="M 545.5,160.5 C 554.167,160.5 562.833,160.5 571.5,160.5C 572.833,166.167 574.167,171.833 575.5,177.5C 565.889,179.474 555.889,180.141 545.5,179.5C 545.5,173.167 545.5,166.833 545.5,160.5 Z"/></g>
<g><path style="opacity:1" fill="#b7b7b7" d="M 779.5,162.5 C 794.324,161.504 809.324,161.171 824.5,161.5C 824.5,168.167 824.5,174.833 824.5,181.5C 811.656,181.829 798.989,181.495 786.5,180.5C 798.833,180.5 811.167,180.5 823.5,180.5C 823.5,174.5 823.5,168.5 823.5,162.5C 808.833,162.5 794.167,162.5 779.5,162.5 Z"/></g>
<g><path style="opacity:1" fill="#fcfcfc" d="M 949.5,160.5 C 958.167,160.5 966.833,160.5 975.5,160.5C 976.833,165.833 978.167,171.167 979.5,176.5C 979.5,177.5 979.5,178.5 979.5,179.5C 969.5,179.5 959.5,179.5 949.5,179.5C 949.5,173.167 949.5,166.833 949.5,160.5 Z"/></g>
<g><path style="opacity:1" fill="#b9b9b9" d="M 1071.5,161.5 C 1088.83,161.5 1106.17,161.5 1123.5,161.5C 1123.5,168.167 1123.5,174.833 1123.5,181.5C 1121.83,181.5 1120.17,181.5 1118.5,181.5C 1119.57,180.566 1120.9,180.232 1122.5,180.5C 1122.5,174.5 1122.5,168.5 1122.5,162.5C 1105.33,162.83 1088.33,162.497 1071.5,161.5 Z"/></g>
<g><path style="opacity:1" fill="#fefefe" d="M 779.5,162.5 C 794.167,162.5 808.833,162.5 823.5,162.5C 823.5,168.5 823.5,174.5 823.5,180.5C 811.167,180.5 798.833,180.5 786.5,180.5C 783.615,174.727 781.281,168.727 779.5,162.5 Z"/></g>
<g><path style="opacity:1" fill="#fbfcfc" d="M 186.5,163.5 C 188.167,163.5 189.833,163.5 191.5,163.5C 198.834,165.507 206.167,167.84 213.5,170.5C 221.726,174.239 230.059,177.572 238.5,180.5C 244.381,184.272 250.714,187.272 257.5,189.5C 268.505,198.334 279.672,207.001 291,215.5C 292.183,219.274 291.349,222.441 288.5,225C 265.5,225.667 242.5,225.667 219.5,225C 205.395,217.884 195.895,206.718 191,191.5C 188.852,182.248 187.352,172.915 186.5,163.5 Z"/></g>
<g><path style="opacity:1" fill="#4d4d4d" d="M 493.5,161.5 C 494.404,162.209 494.737,163.209 494.5,164.5C 482.833,164.5 471.167,164.5 459.5,164.5C 471.037,164.159 482.37,163.159 493.5,161.5 Z"/></g>
<g><path style="opacity:1" fill="#4d4d4d" d="M 897.5,161.5 C 898.404,162.209 898.737,163.209 898.5,164.5C 886.833,164.5 875.167,164.5 863.5,164.5C 875.037,164.159 886.37,163.159 897.5,161.5 Z"/></g>
<g><path style="opacity:1" fill="#8f49b7" d="M 101.5,162.5 C 101.175,169.687 101.509,176.687 102.5,183.5C 97.8415,186.497 93.1748,189.497 88.5,192.5C 92.8697,182.436 97.203,172.436 101.5,162.5 Z"/></g>
<g><path style="opacity:1" fill="#faf9fa" d="M 146.5,164.5 C 146.667,184.169 146.5,203.836 146,223.5C 145.5,224 145,224.5 144.5,225C 120.167,225.667 95.8333,225.667 71.5,225C 69.0155,222.716 68.8489,220.216 71,217.5C 77.3355,209.487 83.1688,201.154 88.5,192.5C 93.1748,189.497 97.8415,186.497 102.5,183.5C 105.331,182.921 107.664,181.588 109.5,179.5C 113.539,177.481 117.539,175.481 121.5,173.5C 124.833,172.167 128.167,170.833 131.5,169.5C 134.618,167.607 137.951,166.274 141.5,165.5C 143.117,164.962 144.784,164.629 146.5,164.5 Z"/></g>
<g><path style="opacity:1" fill="#3e8bf4" d="M 242.5,172.5 C 247.255,178.314 252.255,183.98 257.5,189.5C 250.714,187.272 244.381,184.272 238.5,180.5C 239.5,180.5 240.5,180.5 241.5,180.5C 241.003,178.403 240.67,176.57 240.5,175C 241.066,174.005 241.733,173.172 242.5,172.5 Z"/></g>
<g><path style="opacity:1" fill="#707070" d="M 21.5,186.5 C 18.8812,183.266 17.3812,179.6 17,175.5C 19.0719,178.971 20.5719,182.638 21.5,186.5 Z"/></g>
<g><path style="opacity:1" fill="#9d9d9d" d="M 545.5,160.5 C 545.5,166.833 545.5,173.167 545.5,179.5C 555.889,180.141 565.889,179.474 575.5,177.5C 576.404,178.209 576.737,179.209 576.5,180.5C 565.833,180.5 555.167,180.5 544.5,180.5C 544.176,173.646 544.509,166.979 545.5,160.5 Z"/></g>
<g><path style="opacity:1" fill="#9e9e9e" d="M 949.5,160.5 C 949.5,166.833 949.5,173.167 949.5,179.5C 959.5,179.5 969.5,179.5 979.5,179.5C 979.5,178.5 979.5,177.5 979.5,176.5C 980.434,177.568 980.768,178.901 980.5,180.5C 969.833,180.5 959.167,180.5 948.5,180.5C 948.176,173.646 948.509,166.979 949.5,160.5 Z"/></g>
<g><path style="opacity:1" fill="#9c9c9c" d="M 21.5,186.5 C 23.2503,187.659 24.2503,189.326 24.5,191.5C 22.7497,190.341 21.7497,188.674 21.5,186.5 Z"/></g>
<g><path style="opacity:1" fill="#a2a2a2" d="M 1134.5,192.5 C 1134.79,190.577 1135.63,188.91 1137,187.5C 1137.25,189.668 1136.42,191.335 1134.5,192.5 Z"/></g>
<g><path style="opacity:1" fill="#a3a3a3" d="M 24.5,191.5 C 26.2503,192.659 27.2503,194.326 27.5,196.5C 25.7497,195.341 24.7497,193.674 24.5,191.5 Z"/></g>
<g><path style="opacity:1" fill="#a8a8a8" d="M 1134.5,192.5 C 1134.25,194.674 1133.25,196.341 1131.5,197.5C 1131.75,195.326 1132.75,193.659 1134.5,192.5 Z"/></g>
<g><path style="opacity:1" fill="#bfbfbf" d="M 1131.5,197.5 C 1131.26,199.404 1130.26,200.738 1128.5,201.5C 1128.74,199.596 1129.74,198.262 1131.5,197.5 Z"/></g>
<g><path style="opacity:1" fill="#c7c7c7" d="M 1128.5,201.5 C 1128.26,203.404 1127.26,204.738 1125.5,205.5C 1125.74,203.596 1126.74,202.262 1128.5,201.5 Z"/></g>
<g><path style="opacity:1" fill="#d4d4d4" d="M 27.5,196.5 C 33.5963,203.77 39.9296,210.937 46.5,218C 52.2361,222.519 57.9028,227.019 63.5,231.5C 62.8333,231.5 62.5,231.833 62.5,232.5C 48.0991,223.1 36.4324,211.1 27.5,196.5 Z"/></g>
<g><path style="opacity:1" fill="#e4e4e4" d="M 1125.5,205.5 C 1112.21,223.271 1095.21,236.438 1074.5,245C 1061,250.425 1047,253.425 1032.5,254C 728.167,254.667 423.833,254.667 119.5,254C 98.6207,251.435 79.6207,244.268 62.5,232.5C 62.5,231.833 62.8333,231.5 63.5,231.5C 79.2687,240.924 96.2687,247.091 114.5,250C 423.167,250.667 731.833,250.667 1040.5,250C 1074.79,246.128 1103.13,231.294 1125.5,205.5 Z"/></g>
</svg>
